<?xml version="1.0" encoding="UTF-8"?>
<svg id="Capa_1" xmlns="http://www.w3.org/2000/svg" version="1.1" viewBox="0 0 252 249">
  <!-- Generator: Adobe Illustrator 29.1.0, SVG Export Plug-In . SVG Version: 2.1.0 Build 142)  -->
  <defs>
    <style>
      .st0 {
        fill: #fff;
      }
    </style>
  </defs>
  <path class="st0" d="M235.66,36.35c8.2,8.52-4.77,15.31-5.7,22.11l.1,172.09c-.2,5.86-3.33,9.91-9.53,9.52s-10.49-9.38-14.49-13.59c-15.97-16.82-50.2-46.36-73.54-48.46-34.86-3.13-90.53,28.59-116-3-32.39-40.19,32.45-86.97,54.34-114.76-4.91-13.6-11.13-25.39-5.02-39.94,1.64-3.91,5.31-9.6,9.76-10.27,6.5-.97,6.01,2.16,10.1,4.78,5.08,3.25,14.87,8.41,20.89,8.07,1.44-.08,9.73-5.3,12.46-6.38,17.67-6.96,35.71-5.31,52.95,2.02,3.03,1.29,9.6,5.97,11.66,6.17,5.23.51,13.57-1.25,19.86-.69,7.34.66,27.17,7.14,32.17,12.33ZM213,209V76c-13.24,10.9-29.11,22.61-47.38,20.87-7.53-.72-13.4-3.41-11.41-12.15,1.71-7.54,9.75-4.67,14.28-4.64,14.78.09,32.66-15.5,42.03-26.06.99-1.12,7.09-8.21,6.48-9-8.72-3.14-17.18-4.76-26.53-4.05-6.05.46-16.25,5.23-19.9,5.01-9.96-.62-6.69-12.03-8.16-13.08-1.93-1.38-14.03-3.69-16.92-3.87-31.94-2-45.65,25.86-63.97,45.99-13.13,14.42-28.11,27.31-40.5,42.49,19.22,12.94,26.51,35.35,10.98,54.49,26.25-.65,53.16-12.8,79.49-10.98,31.25,2.17,59.06,28.45,81.51,47.99ZM91,36.01l-11-4,3.01,13.99c.75.58,8.92-8.99,7.99-9.99ZM31.48,132.2c-8.46,8.89-10.01,27.95,1.88,34.73,13.84-10.95,13.78-25.7-1.88-34.73Z"/>
  <path class="st0" d="M145.74,35.24c23.27-4.06,6.63,24.27-2,28-5.16,2.24-14.37-2.62-15.55-7.97-1.76-7.97,10.23-18.76,17.54-20.03Z"/>
  <path class="st0" d="M107.26,81.26c7.15-7.56,17.53,5.49,9.31,10.81s-14.13-5.72-9.31-10.81Z"/>
</svg>